<svg xmlns="http://www.w3.org/2000/svg" viewBox="0 0 34.3 46.5"><path d="M26.2 6.2c0-4.8-8-4.8-8-4.8-.7 0 0-1.4 0-1.4-5.1-.7-6.5 2.7-6.5 2.7-4.4 0-3.6 4.8-3.6 4.8v5.4c0 5 4.1 9.1 9.1 9.1s9.1-4.1 9.1-9.1l-.1-6.7zM17.1 20c-3.9 0-7-3.1-7.1-7l.2-4.7c.8-.8 1.8-1.4 2.9-1.8.7 2.3 10.2 3.8 10.2 3.8.2.1.3.2.5.3 1.3 3.6-.5 7.7-4.1 9-.9.3-1.7.4-2.6.4zm16.2 20.1h-7c-.6 0-1-.4-1-1s.4-1 1-1h6c-.6-6.4-7.1-11.4-15.1-11.4S2.7 31.7 2 38.1h6c.6 0 1 .4 1 1s-.4 1-1 1H1c-.6 0-1-.4-1-1 0-8 7.7-14.4 17.1-14.4s17.1 6.5 17.1 14.4c.1.6-.4 1-.9 1z"/><path d="M17.1 31.7c-4.1 0-7.4 3.3-7.4 7.4s3.3 7.4 7.4 7.4 7.4-3.3 7.4-7.4-3.3-7.4-7.4-7.4z"/><path d="M16.2 40.2c0-1.8 1.9-2 1.9-3.2 0-.5-.4-.9-1-.9-.5 0-1.1.1-1.9.6v-1.6c.5-.3 1.2-.6 2-.6 1.4 0 2.6.9 2.6 2.3 0 2.1-2.1 2.3-2.1 3.6v.4h-1.5v-.6zm.8 1.3c.6 0 1 .4 1 1s-.4 1-1 1-1-.4-1-1 .4-1 1-1z" fill="#fff"/></svg>