<svg xmlns="http://www.w3.org/2000/svg" viewBox="0 0 62 62"><path d="M57 26c2.8 0 5-2.2 5-5V5c0-2.8-2.2-5-5-5H37c-2.8 0-5 2.2-5 5v16c0 2.8 2.2 5 5 5h7v16.1c0 .5-.1.9-.3 1.3l-.8-4.2c-.6-3-3.3-5.2-6.3-5.2-1.4 0-2.5 1.1-2.5 2.5 0 .5.1 1 .4 1.4l1 1.5c.4.6.6 1.2.7 1.9l.7 5.7c.1.9.4 1.7 1 2.4l2.2 2.9V54h-2v8h24v-8h-2v-1.8l1.5-2.9c.3-.7.5-1.5.5-2.2V35c0-1.7-1.3-3-3-3-.4 0-.8.1-1.1.2-.5-1.3-1.6-2.2-3-2.2-.4 0-.8.1-1.1.2-.4-1.3-1.5-2.2-2.9-2.2-.4 0-.7.1-1 .2V26h7zm-20-2c-1.7 0-3-1.3-3-3V5c0-1.7 1.3-3 3-3h20c1.7 0 3 1.3 3 3v16c0 1.7-1.3 3-3 3h-7v-2.1c.2 0 .5.1.7.1 1.1 0 2.1-.4 2.9-1.2l1.4-1.4c.6-.6 1-1.5 1-2.4s-.4-1.8-1-2.4l-1.8-1.8c-.5-.5-1.2-.8-2-.8h-.1c-1.1 0-2 .6-2.5 1.6-.1.3-.4.4-.7.4h-.1c-.2 0-.4-.1-.6-.2l-.9-.9c-.2-.2-.2-.4-.2-.6v-.1c0-.3.2-.6.4-.7 1-.5 1.6-1.4 1.6-2.5v-.2c0-.8-.3-1.5-.8-2L45.4 5c-1.3-1.3-3.5-1.3-4.8 0l-1.4 1.4c-.8.8-1.2 1.8-1.2 3 0 .6.1 1.1.3 1.6 1.4 3.2 3.6 6 6.4 8.1-.4.5-.7 1.2-.7 1.9v3h-7zm9.7-6c-2.9-1.9-5.1-4.6-6.5-7.8-.1-.3-.2-.5-.2-.9 0-.5.2-1.1.6-1.5L42 6.4c.5-.5 1.5-.5 2 0l1.8 1.8c.1.1.2.3.2.6v.1c0 .3-.2.6-.4.7-1 .5-1.6 1.4-1.6 2.5v.1c0 .8.3 1.5.8 2l.9.9c.5.5 1.2.8 2 .8h.1c1.1 0 2-.6 2.5-1.6.1-.3.4-.4.7-.4h.1c.2 0 .4.1.6.2l1.8 1.8c.3.3.4.6.4 1s-.2.7-.4 1l-1.4 1.4c-.6.6-1.6.8-2.4.4h-.1c-.5-1-1.5-1.7-2.7-1.7h-.2zM60 60H40v-4h20v4zm-9-30c.6 0 1 .4 1 1v8h2v-6c0-.6.4-1 1-1s1 .4 1 1v6h2v-4c0-.6.4-1 1-1s1 .4 1 1v12.1c0 .5-.1.9-.3 1.3L58 51.8V54H42v-2.3l-2.6-3.4c-.3-.4-.5-.9-.6-1.4l-.7-5.7c-.1-1-.5-1.9-1-2.8l-1-1.5c-.1-.2-.1-.3-.1-.4 0-.3.2-.5.5-.5 2.1 0 3.9 1.5 4.4 3.6l1.3 6.4h2.4l.9-1.7c.3-.7.5-1.5.5-2.2V21c0-.6.4-1 1-1s1 .4 1 1v18h2v-8c0-.6.4-1 1-1zM25 32H5c-2.8 0-5 2.2-5 5v16c0 2.8 2.2 5 5 5h20c2.8 0 5-2.2 5-5V37c0-2.8-2.2-5-5-5zm3 21c0 1.7-1.3 3-3 3H5c-1.7 0-3-1.3-3-3V37c0-1.7 1.3-3 3-3h20c1.7 0 3 1.3 3 3v16zM25 0H5C2.2 0 0 2.2 0 5v16c0 2.8 2.2 5 5 5h20c2.8 0 5-2.2 5-5V5c0-2.8-2.2-5-5-5zm3 21c0 1.7-1.3 3-3 3H5c-1.7 0-3-1.3-3-3V5c0-1.7 1.3-3 3-3h20c1.7 0 3 1.3 3 3v16z"/><path d="M15 4c-4.4 0-8 3.6-8 8v2c0 4.4 3.6 8 8 8v-2c-3.3 0-6-2.7-6-6v-2c0-3.3 2.7-6 6-6s6 2.7 6 6v5c0 .6-.4 1-1 1s-1-.4-1-1v-5c0-2.2-1.8-4-4-4s-4 1.8-4 4v2c0 2.2 1.8 4 4 4 .7 0 1.4-.2 2-.6.2 1.5 1.4 2.6 3 2.6 1.7 0 3-1.3 3-3v-5c0-4.4-3.6-8-8-8zm0 12c-1.1 0-2-.9-2-2v-2c0-1.1.9-2 2-2s2 .9 2 2v2c0 1.1-.9 2-2 2zM4 52h22V38H4v14zm7.7-5.1c1 .7 2.1 1.1 3.3 1.1s2.4-.4 3.3-1.1l3.8 3.1H7.9l3.8-3.1zm8.1-1.3l4.2-4.2v7.5l-4.2-3.3zm-2.1-.7c-1.4 1.4-4 1.4-5.4 0L7.4 40h15.2l-4.9 4.9zm-7.5.7L6 48.9v-7.5l4.2 4.2z"/></svg>