<svg xmlns="http://www.w3.org/2000/svg" viewBox="0 0 480 480"><path d="M13.7 242.3c-3.1-3.1-8.2-3.1-11.3 0C.8 243.8 0 245.9 0 248v224c0 4.4 3.6 8 8 8h224c4.4 0 8-3.6 8-8 0-2.1-.8-4.2-2.3-5.7l-224-224zM16 464V267.3L212.7 464H16z"/><path d="M56 432h64c4.4 0 8-3.6 8-8 0-2.1-.8-4.2-2.3-5.7l-64-64c-3.1-3.1-8.2-3.1-11.3 0-1.5 1.5-2.3 3.5-2.3 5.7v64c-.1 4.4 3.5 8 7.9 8zm8-52.7l36.7 36.7H64v-36.7zM88 32h16v16H88zM120 32h16v16h-16zM152 32h16v16h-16zM164.8 144.7c-2.9 1.3-4.8 4.1-4.8 7.3v88c0 3.2 1.9 6 4.8 7.3l72 32c2.1.9 4.4.9 6.5 0l72-32c2.9-1.3 4.7-4.1 4.7-7.3v-88c0-3.2-1.8-6-4.8-7.3l-72-32c-2.1-.9-4.4-.9-6.5 0l-71.9 32zm67.2 115l-56-24.9v-70.5l56 24.9v70.5zm72-24.9l-56 24.9v-70.5l56-24.9v70.5zm-64-106l52.3 23.2-52.3 23.2-52.3-23.2 52.3-23.2zM232 304h16v40h-16zM232 56h16v40h-16zM100.546 135.156l6.896-14.438 33.48 15.99-6.897 14.439zM339.08 136.775l33.48-15.99 6.895 14.439-33.479 15.99zM100.552 264.77l33.476-15.99 6.896 14.437-33.476 15.99z"/><path d="M472 368h-48V243.3l47-47c12-12 12-31.4 0-43.3-12-12-31.4-12-43.3 0l-3.7 3.7V88c0-2.1-.8-4.2-2.3-5.7l-80-80C340.2.8 338.1 0 336 0H88C70.3 0 56 14.3 56 32v232h16V32c0-8.8 7.2-16 16-16h240v48c0 17.7 14.3 32 32 32h48v76.7L282.3 298.3c-1.1 1.1-1.9 2.5-2.2 4.1l-8 40c-.9 4.3 1.9 8.5 6.3 9.4 1 .2 2.1.2 3.1 0l40-8c1.5-.3 3-1.1 4.1-2.2l82.3-82.3V368H248c-4.4 0-8 3.6-8 8v24h-40v16h40v24c0 4.4 3.6 8 8 8h224c4.4 0 8-3.6 8-8v-64c0-4.4-3.6-8-8-8zM344 64V27.3L396.7 80H360c-8.8 0-16-7.2-16-16zm-44.7 240L424 179.3l20.7 20.7L320 324.7 299.3 304zm150.1-144c8.1 0 14.6 6.6 14.6 14.6 0 3.9-1.5 7.6-4.3 10.3l-3.7 3.7-20.7-20.6 3.7-3.7c2.8-2.8 6.5-4.3 10.4-4.3zM292.9 320.2l10.9 10.9-13.6 2.7 2.7-13.6zM464 432H256v-48h16v16h16v-16h16v16h16v-16h16v16h16v-16h16v16h16v-16h16v16h16v-16h16v16h16v-16h16v48z"/></svg>