<svg xmlns="http://www.w3.org/2000/svg" viewBox="0 0 24 22"><path d="M10.8 14c.5 0 .7-.1 1-.2.1 0 .1-.1.2-.1s.1 0 .2.1c.2.1.5.2 1 .2C16 14 18 10.2 18 7.6c0-2.5-1.2-4.2-2.9-4.5.5-.7.9-1.5.9-2.6 0-.3-.2-.5-.5-.5-1.3 0-2.5.6-3.3 1.7-.2-.6-.5-1-.8-1.5-.1-.2-.4-.3-.7-.1-.2.1-.3.5-.2.7.5.8.8 1.3.9 2.7-.1 0-.2-.1-.3-.1-.3-.2-.9-.4-1.5-.4C7.4 3 6 4.9 6 7.6c0 2.6 2 6.4 4.8 6.4zM15 1c-.2 1-.8 1.7-1.6 2.1-.2.1-.4.1-.6.2-.1 0-.1 0-.2.1.2-1.3 1.2-2.2 2.4-2.4zM9.6 4c.5 0 .9.2 1.3.3.4.1.8.3 1.2.3.4 0 .8-.1 1.2-.3h.1c.1 0 .2-.1.4-.1.1-.1.3-.2.6-.2C16 4 17 5.5 17 7.6c0 2.4-1.8 5.4-3.8 5.4-.3 0-.4 0-.5-.1-.1-.1-.3-.2-.7-.2h-.1c-.3 0-.5.1-.6.2-.1.1-.2.1-.5.1-2 0-3.8-3-3.8-5.4C7 5.5 8 4 9.6 4zm14.3 17.3c0-.1 0-.1 0 0l-.1-.1s-.1 0-.1-.1h-.1-.1c-.2-.2-.6-1.5-.6-2.5s.4-2.3.6-2.5h.2s.1 0 .1-.1h.1s0-.1.1-.1v-.1-.2c0-.3-.2-.5-.5-.5h-21C1.1 15 0 16.1 0 17.5v2C0 20.9 1.1 22 2.5 22h21c.3 0 .5-.2.5-.5 0-.1 0-.1-.1-.2.1 0 0 0 0 0zM2.5 18H22v1H2.5c-.3 0-.5.2-.5.5s.2.5.5.5h19.7c.1.3.2.7.3 1h-20c-.8 0-1.5-.7-1.5-1.5v-2c0-.8.7-1.5 1.5-1.5h20c-.1.3-.2.7-.3 1H2.5c-.3 0-.5.2-.5.5s.2.5.5.5z"/></svg>