<svg version="1.1" id="Layer_1" xmlns="http://www.w3.org/2000/svg" x="0" y="0" viewBox="0 0 36.4 64" xml:space="preserve"><style>.st0{fill:#1a1a1a}</style><path class="st0" d="M26.5 17.1c.7 0 1.3-.2 1.8-.7.1-.1.2-.3.3-.4 1.6-.2 2.7-1.6 2.6-3.2-.2-1.6-1.6-2.8-3.2-2.6-.6.1-1.2.3-1.7.8-.3.3-.5.6-.7 1-.3.1-.7.3-.9.6-1.1 1-1.1 2.7-.1 3.7.4.5 1.1.8 1.9.8zm-1-3.6c.2-.2.4-.3.7-.3.2 0 .4-.2.5-.5.2-.9 1.1-1.4 2-1.1s1.4 1.1 1.1 2c-.1.3-.2.6-.5.8-.3.3-.7.4-1.1.4-.2 0-.5.1-.6.4-.3.7-1.1.9-1.8.6s-.9-1.1-.6-1.8c.1-.3.2-.4.3-.5zM7.4 12.2c1.5 0 2.8-1.2 2.8-2.8S8.9 6.7 7.4 6.7 4.6 7.9 4.6 9.4s1.3 2.8 2.8 2.8zm0-4.2c.8 0 1.4.6 1.4 1.5s-.6 1.4-1.5 1.4c-.8 0-1.4-.6-1.4-1.5 0-.8.7-1.4 1.5-1.4zM16.6 4.6c1.3 0 2.3-1 2.3-2.3S17.8 0 16.5 0c-1.3 0-2.3 1-2.3 2.3s1.1 2.3 2.4 2.3zm0-3.3c.6 0 1 .4 1 1s-.4 1-1 1-1-.4-1-1 .4-1 1-1zM36.4 30.4c0-1.6-1.2-2.9-2.7-3.1-.2-1.7-1.7-2.9-3.4-2.7h-.2c-.6-2.3-3.3-3.8-4.7-3.9-.4-1.7-1.8-3-3.6-3.1-.3-2-2.2-3.3-4.2-2.9-1.5.3-2.7 1.4-2.9 2.9-1.8.1-3.2 1.4-3.6 3.1-1.4.1-4.1 1.6-4.7 3.9-1.7-.3-3.3.8-3.6 2.5v.2c-1.6.2-2.8 1.5-2.8 3.1 0 .6.2 1.2.5 1.6v.3l5.9 28.5c.1.2.2.4.5.5L18 64H18.3l11.2-2.7c.2-.1.4-.3.5-.5l5.9-28.5V32c.3-.4.5-1 .5-1.6zM3.3 28.6c.4 0 .7-.2.7-.6v-.1-.2c0-1 .8-1.8 1.8-1.8h.3c.2.1 1.3.5 1.4 1.3.1.3.3.5.6.5s.5-.2.6-.5c.3-1 1.4-1.6 2.4-1.4.4 0 .7-.2.7-.6 0-.3-.2-.6-.5-.7-1.2-.2-2.4.2-3.2 1.1-.2-.2-.4-.4-.6-.5.2-1.9 2.8-3.2 3.6-3.2h.2c.3 0 .7-.2.7-.5.1-1.5 1.4-2.6 2.8-2.6h.2c.2 0 .4-.1.5-.2.1-.1.2-.3.2-.5 0-1.3 1-2.3 2.3-2.3s2.3 1 2.3 2.3c0 .4.3.7.6.7H21.2c1.2 0 2.3.8 2.7 2-.6.2-1.1.5-1.6 1-.5-.5-1.1-.9-1.8-1.1-.4-.1-.7.1-.8.5-.1.3.1.6.4.8 0 0 1.3.4 1.5 1.4.1.3.3.5.6.5s.6-.2.6-.5c.3-1.1 1.4-1.7 2.5-1.4 1 .3 3 1.5 3.2 3.1-.7.4-1.1 1.1-1.3 1.9-.1.4.2.7.5.8h.2c.3 0 .6-.2.6-.5.1-.8 1-1.2 1.3-1.3.1 0 .3-.1.5-.1 1 0 1.8.8 1.8 1.8v.2c0 .4.2.7.6.7h.2c1-.1 1.9.6 2 1.6v.2c0 1-.8 1.8-1.8 1.8-.2 0-.3 0-.5-.1-.3-.1-.6.1-.8.4-.2.5-.7.9-1.3 1.1-.1 0-.3 0-.4.1H30c-.4.1-.8 0-1.2-.2-.3-.2-.6-.1-.8.1-.6.6-1.5.7-2.2.3-.3-.2-.7 0-.9.3 0 .1 0 .1-.1.2-.1.5-.4.9-.8 1.2-.6.3-1.3.3-1.9 0-.2-.1-.5-.1-.7 0-1 .9-2.3 1.4-3.6 1.3-1 0-2-.3-2.8-.8.4-.5.7-1.1.8-1.7 1.3.4 2.8.1 3.8-.9.3-.3.3-.7 0-.9s-.7-.3-.9 0c-.9.8-2.1.9-3.1.3-.3-.2-.7-.1-.9.2.3-.2.3 0 .3.1 0 .9-.4 1.7-1.1 2.2-.6.3-1.3.3-1.8-.1-.4-.3-.7-.7-.8-1.2-.1-.4-.4-.6-.8-.5-.1 0-.2 0-.2.1-.7.4-1.6.3-2.2-.3-.2-.2-.5-.2-.8-.1-.3.2-.7.3-1.1.3H6c-.1-.1-.3-.1-.4-.1-.6-.1-1.1-.5-1.3-1.1-.1-.3-.5-.4-.8-.4-.9.3-1.9-.3-2.2-1.2 0-.2-.1-.3-.1-.5 0-1 .8-1.8 1.8-1.8.2.1.2.1.3.1zm7.7 7.6l2.6 25.4-2.4-.6-4.7-26.1c.3 0 .6-.1.9-.3.8.5 1.8.7 2.7.5.2.4.5.8.9 1.1zm1.4.7c.2 0 .4.1.6.1.3 0 .5 0 .8-.1h.2l.2-.1c.9.7 2.1 1.2 3.3 1.3v24.5l-2.5-.7-2.6-25zm6.4 1.1c1.2-.1 2.3-.5 3.3-1.3.6.3 1.2.3 1.9.2L21.4 62l-2.5.6V38zm6.5-1.8c.4-.3.7-.7.8-1.1.9.2 1.9.1 2.7-.5l.9.3L25.2 61l-2.5.6 2.6-25.4zM2 33.3c.4.2.9.2 1.4.2.4.6 1.1 1.1 1.8 1.3l4.6 25.9-2.3-.5L2 33.3zm26.8 26.9l-2.3.5 4.6-25.9c.7-.2 1.4-.7 1.8-1.3.5 0 .9 0 1.4-.2l-5.5 26.9z"/></svg>