<svg xmlns="http://www.w3.org/2000/svg" viewBox="0 0 385.5 510"><path d="M384.5 344.1c-3.1-27.5-12.8-54.5-27.4-76.1-5.7-8.4-10.5-15.2-14.7-21.2-18.4-26-24.6-34.8-41.9-87.9-7.3-22.3-15.5-39-25.5-51.4 1-.9 1.8-1.7 2.6-2.5 10.8-10.8 28.7-36.3 26.8-85.7C304.1 9 295.7.6 285.2.1c-49.3-1.8-74.8 16-85.6 26.8-4.5 4.6-8.4 9.6-11.6 15.2-4.2-12.8-9.6-25.2-16.2-36.9-2.7-4.8-8.8-6.5-13.6-3.8-4.7 2.7-6.4 8.7-3.9 13.4 14.8 26.8 18.9 47.3 20 57.9-17.6 2.6-34.4 9.5-48.7 20.1-17.3 13-29.8 33.4-40.5 66.1-17.3 53.1-23.5 61.9-41.9 87.9-4.2 6-9 12.8-14.7 21.2C13.8 289.6 4.1 316.6 1 344.1c-3.5 31 1.7 60.4 14.8 85.3C35.4 466.2 81.7 510 191.4 510h2.8c109.7 0 156-43.9 175.5-80.6 13.1-24.9 18.3-54.4 14.8-85.3zM194.3 84.3c.2-.7.3-1.3.3-2 2.5-14.3 7.9-30 19.1-41.2 18.2-18.2 48.3-21 65-21 2.2 0 4.1 0 5.8.1.5 14.4-.4 50.2-21 70.8-20.5 20.6-56.3 21.5-70.8 20.9-.3-9.2.2-18.5 1.6-27.6zM352 420c-24.3 45.8-78.9 70-157.8 70h-2.8c-79 0-133.5-24.2-157.8-70C8.3 372.3 21.8 313.6 45 279.2c5.6-8.2 10.3-14.9 14.5-20.8 18.6-26.3 26.3-37.3 44.6-93.2 9.3-28.5 19.6-45.9 33.5-56.3 10.5-7.8 22.6-13.2 35.5-15.6-.5 6.4-.6 12.9-.3 19.3.4 10.5 8.8 18.9 19.3 19.3 2.4.1 4.7.1 7 .1 26.9 0 46.2-6 59.5-13.1 8.8 10.5 16.2 25.4 23 46.2 18.3 56 26 66.9 44.6 93.2 4.2 5.9 8.9 12.6 14.5 20.8 23.1 34.5 36.6 93.2 11.3 140.9z"/><path d="M237.7 383.6h-89.8c-5.5 0-10 4.5-10 10 0 30.3 24.6 54.9 54.9 54.9s54.9-24.6 54.9-54.9c0-5.5-4.5-10-10-10zM261.2 335.2c-15.2 0-27.5 12.3-27.6 27.5 0 5.5 4.5 10 10 10s10-4.5 10-10c.2-4.2 3.7-7.4 7.8-7.3 4 .1 7.1 3.3 7.3 7.3 0 5.5 4.5 10 10 10s10-4.5 10-10c0-15.1-12.3-27.5-27.5-27.5zM152 362.8c-.3-15.2-12.9-27.3-28.1-27-14.8.3-26.7 12.2-27 27 0 5.5 4.5 10 10 10s10-4.5 10-10c.2-4.2 3.7-7.4 7.8-7.3 4 .1 7.1 3.3 7.3 7.3 0 5.5 4.5 10 10 10s10-4.5 10-10z"/></svg>