<svg xmlns="http://www.w3.org/2000/svg" viewBox="0 0 128 90"><path d="M33.4 69.4c.7.3 1.3.5 1.9.5.9 0 1.7-.4 2.3-1 .5-.5.9-1.5.7-3.1l-.7-4.3 3.2-3.1c1.1-1.1 1.5-2.4 1.1-3.6-.4-1.2-1.5-2-3-2.2l-4.4-.6-2-3.9c-.7-1.4-1.8-2.2-3-2.2-1.3 0-2.4.8-3 2.2l-2 3.9-4.4.6c-1.5.2-2.6 1-3 2.2-.4 1.2 0 2.5 1.1 3.6l3.2 3.1-.7 4.3c-.3 1.5.2 2.5.7 3.1 1 1.1 2.6 1.4 4.2.5l3.9-2 3.9 2zm-8.6-4.1l.9-5.2-3.8-3.7 5.2-.8 2.3-4.7 2.3 4.7 5.2.8-3.8 3.7.9 5.2-4.7-2.4-4.5 2.4zM18.8 42l-.6-3.8 2.6-2.7c1-1 1.4-2.3 1-3.4-.4-1.1-1.4-1.9-2.8-2.1l-3.6-.5-1.5-3.5c-.9-1.9-2.3-2.1-2.9-2.1-.6 0-2 .2-2.9 2.1l-1.6 3.4-3.6.6c-1.4.2-2.4 1-2.8 2.1-.4 1.1 0 2.4 1 3.4l2.6 2.7-.5 3.8c-.2 1.5.2 2.4.7 2.9.9 1.1 2.5 1.3 4 .5l3.2-1.8 3.2 1.8c.6.3 1.2.5 1.8.5.9 0 1.6-.3 2.2-1 .3-.5.8-1.4.5-2.9zm-4.9-5.2l.7 4.3-3.6-2-3.6 2 .7-4.3L5 33.7l4.2-.6 1.8-3.8 1.8 3.8 4.2.6-3.1 3.1zM107.9 52.7l-4.4-.6-2-3.9c-.7-1.4-1.8-2.2-3-2.2-1.3 0-2.4.8-3 2.2l-2 3.9-4.4.6c-1.5.2-2.6 1-3 2.2-.4 1.2 0 2.5 1.1 3.6l3.2 3.1-.7 4.3c-.3 1.5.2 2.5.7 3.1 1 1.1 2.6 1.4 4.2.5l3.9-2 3.9 2c.7.3 1.3.5 1.9.5.9 0 1.7-.4 2.3-1 .5-.5.9-1.5.7-3.1l-.7-4.3 3.2-3.1c1.1-1.1 1.5-2.4 1.1-3.6-.4-1.2-1.5-2-3-2.2zm-5.6 7.4l.9 5.2-4.7-2.4-4.7 2.4.9-5.2-3.8-3.7 5.2-.8 2.3-4.7 2.3 4.7 5.2.8-3.6 3.7zM127.9 32.1c-.4-1.1-1.4-1.9-2.8-2.1l-3.6-.5-1.6-3.4c-.9-1.9-2.3-2.1-2.9-2.1-.6 0-2 .2-2.9 2.1l-1.6 3.4-3.6.5c-1.4.2-2.4 1-2.8 2.1-.4 1.1 0 2.4 1 3.4l2.6 2.7-.6 3.8c-.2 1.5.2 2.4.7 2.9.9 1.1 2.5 1.3 4 .5l3.2-1.8 3.2 1.8c.6.3 1.2.5 1.8.5.9 0 1.6-.3 2.2-1 .4-.5.9-1.4.7-2.9l-.6-3.8 2.6-2.7c1-1 1.3-2.3 1-3.4zm-8 4.7l.7 4.3-3.6-2-3.6 2 .7-4.3-3.1-3.1 4.2-.6 1.8-3.8 1.8 3.8 4.2.6-3.1 3.1zM64 34.9c9.4 0 17-7.6 17-17S73.4.9 64 .9s-17 7.6-17 17 7.6 17 17 17zm0-30c7.2 0 13 5.8 13 13s-5.8 13-13 13-13-5.8-13-13c0-7.1 5.8-13 13-13zM75.2 77.2l5.3-5.4c1.4-1.4 1.9-3 1.4-4.5-.6-1.3-1.9-2.3-3.8-2.6l-7.2-1.1-3.2-6.9c-1.2-2.5-3-2.8-3.7-2.8-.7 0-2.5.3-3.7 2.8l-3.2 6.9-7.2 1.1c-1.9.3-3.2 1.3-3.7 2.7-.5 1.4 0 3.1 1.4 4.5l5.3 5.4-1.2 7.6c-.3 2 .3 3.3.8 3.9 1.2 1.4 3.2 1.6 5.2.5l6.4-3.5 6.4 3.5c.9.5 1.7.7 2.5.7 1.1 0 2-.4 2.7-1.2.6-.7 1.2-1.9.8-3.9l-1.3-7.7zm-2.7 8.3v.3c-.1 0-.1-.1-.2-.1L64 81.1l-8.3 4.6c-.1 0-.1.1-.2.1v-.3l1.6-9.6-6.7-6.9-.3-.3c.1 0 .2 0 .3-.1l9.3-1.4 4.1-8.8c0-.1.1-.1.1-.2 0 .1.1.1.1.2l4.1 8.8 9.3 1.4c.1 0 .2 0 .3.1l-.3.3-6.7 6.8 1.8 9.7zM36.8 47.6c1.1-1.9 2.3-3.6 3.8-5.1 3.2-3.3 7.4-5.5 12.5-6.7-1.4-.9-2.7-1.9-3.9-3.1C42.3 35 37.5 39 34.3 43.9c.7.7 1.3 1.5 1.8 2.4l.7 1.3zM33.2 74.8c-.7 0-1.2-.5-1.2-1v-.6c-.2-.1-.3-.1-.5-.2l-2.1-1.1-1.4.8V74c.1 2.7 2.4 4.9 5.2 4.9h15.3v-.2l-3.7-3.8H33.2zM74.7 35.9c5 1.3 9.1 3.5 12.3 6.7 1.5 1.5 2.8 3.3 4 5.4l.9-1.7c.4-.8.9-1.5 1.5-2.1-3.2-4.9-7.9-9-14.7-11.3-1.2 1.2-2.5 2.2-4 3zM96.4 73c-.2.1-.3.1-.5.2v.7c0 .4-.5.9-1.2.9H83.2l-3.7 3.8v.2h15.3c2.7 0 5.1-2.2 5.2-4.9v-1.3l-1.5-.8-2.1 1.2z"/></svg>