<svg xmlns="http://www.w3.org/2000/svg" viewBox="0 0 42 60"><path d="M16.4 3.8c.5.3 1.1.2 1.4-.3.3-.5.2-1.1-.3-1.4l-3-2c-.5-.3-1.1-.2-1.4.3-.3.5-.2 1.1.3 1.4l3 2zM16.4 10.2l-3 2c-.5.3-.6.9-.3 1.4.3.5.9.6 1.4.3l3-2c.5-.3.6-.9.3-1.4-.3-.5-.9-.6-1.4-.3zM13 8h4c.6 0 1-.4 1-1s-.4-1-1-1h-4c-.6 0-1 .4-1 1s.4 1 1 1z"/><path d="M1 60h40c.6 0 1-.4 1-1 0-.2 0-.3-.1-.5l-13-25.9-3.5-6.9c-.7-1.4-2-2.4-3.5-2.7v-7h15c.6 0 1-.4 1-1 0-.2-.1-.4-.2-.6L34.2 9l3.6-5.4c.3-.5.2-1.1-.3-1.4-.1-.1-.3-.2-.5-.2H22V1c0-.6-.4-1-1-1s-1 .4-1 1v22.1c-1.5.3-2.8 1.3-3.5 2.7L.1 58.6c-.2.5 0 1.1.4 1.3.2.1.3.1.5.1zM35.1 4l-3 4.4c-.2.3-.2.8 0 1.1l3 4.4H22V4h13.1zM20.8 25c.1.1.3.1.4 0 1.1.1 2 .7 2.5 1.6l3 6-3.3 1.4-4.4-1.9c-.1-.1-.3-.1-.4-.1-.1 0-.3 0-.4.1l-3.3 1.4 3.4-6.9c.5-1 1.4-1.6 2.5-1.6zm-7.2 11h.5l4.4-1.8 4.4 1.8c.2.1.5.1.8 0l3.8-1.6L39.4 58H2.6l11-22z"/><path d="M15 41c-.6 0-1 .4-1 1v2c0 .6.4 1 1 1s1-.4 1-1v-2c0-.6-.4-1-1-1zM19 44c-.6 0-1 .4-1 1v2c0 .6.4 1 1 1s1-.4 1-1v-2c0-.6-.4-1-1-1z"/></svg>