<?xml version="1.0" encoding="utf-8"?>
<!-- Generator: Adobe Illustrator 24.0.2, SVG Export Plug-In . SVG Version: 6.00 Build 0)  -->
<svg version="1.1" id="Layer_1" xmlns="http://www.w3.org/2000/svg" xmlns:xlink="http://www.w3.org/1999/xlink" x="0px" y="0px"
	 viewBox="0 0 28.3 28.3" style="enable-background:new 0 0 28.3 28.3;" xml:space="preserve">
<path d="M21.1,2.1h-14c-2.8,0-5,2.2-5,5v14c0,2.8,2.2,5,5,5h14c2.8,0,5-2.2,5-5v-14C26.1,4.4,23.9,2.1,21.1,2.1z M10.1,21.1h-3v-11
	h3V21.1z M8.6,8.9c-1,0-1.8-0.8-1.8-1.8s0.8-1.8,1.8-1.8s1.8,0.8,1.8,1.8S9.6,8.9,8.6,8.9z M22.1,21.1h-3v-5.6c0-3.4-4-3.1-4,0v5.6
	h-3v-11h3v1.8c1.4-2.6,7-2.8,7,2.5V21.1z"/>
</svg>
