<svg xmlns="http://www.w3.org/2000/svg" viewBox="0 0 90 79.2"><path d="M47.1 0H23.4C10.5 0 0 10.5 0 23.4v6.3c0 10.1 6.4 19 15.9 22.2l.3.1-.2.3c-1.3 2.2-2.9 5.5-5.2 10.4-.4.8-.2 1.7.4 2.3.4.4.9.6 1.4.6.3 0 .6-.1.8-.2l26.7-12.2h6.8c12.9 0 23.4-10.5 23.4-23.4v-6.3C70.5 10.5 60 0 47.1 0zM17.3 58.6c1.6-3.1 2.8-5.3 3.3-6 .5-.3.9-.9 1-1.5.1-1.1-.6-2.1-1.7-2.2-9.3-1.6-16-9.7-16-19.1v-6.3C4 12.7 12.7 4 23.4 4h23.7c10.7 0 19.4 8.7 19.4 19.4v6.3c0 10.7-8.7 19.4-19.4 19.4h-7.2c-.3 0-.6.1-.8.2L17 59.3l.3-.7z"/><path d="M70.7 14c.6 1.4 1 2.9 1.3 4.5 8.3 2.4 14 9.9 14 18.6v6.3c0 9.4-6.7 17.5-16 19.1-1.1.2-1.8 1.2-1.7 2.2.1.6.4 1.1 1 1.5l.1.1c.6.7 1.8 2.9 3.3 6l.3.7-22-10.1c-.3-.1-.6-.2-.8-.2H43c-4 0-7.8-1.2-11.1-3.6L27.7 61c4.2 3.7 9.7 5.7 15.3 5.7h6.8L76.4 79c.3.1.5.2.8.2.5 0 1.1-.2 1.4-.6.6-.6.8-1.5.4-2.3-2.2-4.8-3.9-8.2-5.2-10.4l-.2-.3.3-.1C83.6 62.3 90 53.4 90 43.3V37c0-11.3-8.1-21-19.3-23zM17.3 22.3c-2.7 0-4.8 2.2-4.8 4.8 0 2.7 2.2 4.8 4.8 4.8s4.8-2.2 4.8-4.8-2.1-4.8-4.8-4.8z"/><path d="M53.2 22.3c-2.7 0-4.8 2.2-4.8 4.8 0 2.7 2.2 4.8 4.8 4.8 2.7 0 4.8-2.2 4.8-4.8s-2.2-4.8-4.8-4.8zM35.2 22.3c-2.7 0-4.8 2.2-4.8 4.8 0 2.7 2.2 4.8 4.8 4.8s4.8-2.2 4.8-4.8c.1-2.7-2.1-4.8-4.8-4.8z"/></svg>