<svg xmlns="http://www.w3.org/2000/svg" viewBox="0 0 77.2 67.1"><path d="M33.8 48.2c1.9 0 3.4-1.5 3.4-3.4s-1.5-3.4-3.4-3.4-3.4 1.5-3.4 3.4 1.5 3.4 3.4 3.4zm0-4.8c.8 0 1.4.6 1.4 1.4s-.6 1.4-1.4 1.4-1.4-.6-1.4-1.4.6-1.4 1.4-1.4z"/><path d="M72.9 15.6h-5.3V4.8c0-2.6-2.2-4.8-4.8-4.8h-58C2.2 0 0 2.2 0 4.8v41.7c0 2.6 2.2 4.8 4.8 4.8h17.7v2.6h-3.9c-2.7 0-4.9 2.2-4.9 4.9v.9c0 .6.4 1 1 1h25.8v2.2c0 2.3 1.9 4.2 4.2 4.2H73c2.3 0 4.2-1.9 4.2-4.2V19.8c0-2.3-1.9-4.2-4.3-4.2zM40.4 58.7H15.6c.1-1.6 1.4-2.8 2.9-2.8h21.8v2.8zm0-4.8H24.5v-2.6h15.9v2.6zm0-4.6H4.8C3.3 49.3 2 48 2 46.5v-5.8h38.4v8.6zm0-29.5v18.8H2V4.8C2 3.3 3.3 2 4.8 2h58c1.5 0 2.8 1.3 2.8 2.8v10.7h-21c-2.3.1-4.2 2-4.2 4.3zm34.8 43.1c0 1.2-1 2.2-2.2 2.2H44.6c-1.2 0-2.2-1-2.2-2.2V19.8c0-1.2 1-2.2 2.2-2.2h28.3c1.2 0 2.2 1 2.2 2.2v43.1z"/><path d="M72.6 19.8H44.9c-.6 0-1 .4-1 1V59c0 .6.4 1 1 1h27.7c.6 0 1-.4 1-1V20.8c0-.6-.4-1-1-1zm-1 38.1H45.9V21.8h25.7v36.1z"/></svg>