<svg xmlns="http://www.w3.org/2000/svg" viewBox="0 0 88.6 89.6"><path d="M88.6 37.1c-.1-.4-.3-.8-.7-1l-13.4-8.7-.8-15.9c0-.8-.8-1.4-1.6-1.4H72l-15.8 2L45.4.5c-.6-.6-1.6-.6-2.1 0l-11 11.6-15.8-2c-.8-.1-1.5.5-1.6 1.3v.1l-.8 15.9L.7 36.2c-.7.4-.9 1.4-.4 2 0 0 0 .1.1.1l8.5 11.3c0 1.1.2 2.2.5 3.3.2 1 .6 2 1 2.9L2 64.2c-.7.7-.7 1.7 0 2.4l22.6 22.6c.7.6 1.7.6 2.4 0l8.9-8.9c.3.1.5.2.8.2 1.7.5 3.5.7 5.3.6 1.3 0 2.5-.2 3.8-.6l12.9 6.6c.2.1.4.2.7.2.2 0 .3 0 .5-.1.4-.1.7-.4.8-.8l6.2-14.7 15.5-3.6c.8-.2 1.3-1 1.1-1.8v-.1L78.7 51l9.6-12.7c.2-.4.3-.8.3-1.2zM43.3 62.6c-3.7-.1-6.8-3-7.2-6.7l22.1-22 6.9 6.9-21.8 21.8zm23.8-19c2.8 4.8 2.1 10.9-1.7 15L52.1 71.9c-3.5-.3-6.3-3.1-6.7-6.7l21.7-21.6zM40 47.3c-.3-3.4-2.5-6.4-5.6-7.7l14.7-14.8 6.7 6.7L40 47.3zm-9-9.1l-9.5-3.9 9.8-9.7c4.1-3.9 10.2-4.6 15.1-1.7L31 38.2zm1.9 4.4c2.9 1.7 3.8 5.4 2.1 8.2-1.3 2.3-4 3.4-6.6 2.8L12.2 47c.3-2.4 1.4-4.6 3-6.4.1-.2 3.7-3.8 3.7-3.8l14 5.8zM36 76.8c-.6-.3-1.4-.1-1.8.4l-8.4 8.4L8.9 68.7l-3.4-3.4 4.4-4.4 3.6-3.6c.5-.5.6-1.3.3-2-.5-1-1-2-1.3-3.1l-.3-1.5 14.9 6.1c1.8.7 3.8.9 5.7.4.8 4.6 4.6 8.2 9.2 8.8.5 4.1 3.3 7.5 7.1 8.8-1.1 1-2.5 1.8-3.9 2.3-1.1.4-2.3.6-3.5.7-1.9.1-3.8-.3-5.7-1zm39.9-27c-.3.4-.4.9-.2 1.3l4.4 14.5L65.4 69c-.5.1-.8.4-1 .9l-5.9 13.9-9.4-4.8c1.1-.6 2.1-1.4 3-2.3L67.8 61c6.1-6.2 5.9-16.4-.6-22.9L51.9 22.8c-6.5-6.5-16.8-6.8-22.9-.6L13.2 37.9c-2 2-3.4 4.5-4.1 7.3l-5.6-7.4 12.7-8.2c.4-.3.6-.7.6-1.2l.8-15.1 15 1.8c.5.1.9-.1 1.3-.5l10.4-11 10.3 11c.3.3.8.5 1.3.5l15-1.8.8 15.1c0 .5.3.9.7 1.2L85 37.7l-9.1 12.1z"/></svg>