<svg xmlns="http://www.w3.org/2000/svg" viewBox="0 0 77 77"><path d="M23.1 26c-.1.4 0 .8.3 1L34 37.4 31.5 52c-.1.4.1.8.4 1 .3.2.7.3 1.1.1l13-7L59.1 53c.1.1.3.1.5.1s.4-.1.6-.2c.3-.2.5-.6.4-1L58 37.4 68.6 27c.3-.3.4-.7.3-1-.1-.4-.4-.6-.8-.7l-14.6-2.1L46.9 10c-.3-.7-1.5-.7-1.8 0l-6.5 13.3L24 25.4c-.4 0-.8.3-.9.6zm16.3-.9c.3 0 .6-.3.8-.5L46 12.7l5.9 11.9c.1.3.4.5.8.5L65.8 27l-9.5 9.3c-.2.2-.3.6-.3.9l2.2 13.1-11.8-6.2c-.1-.1-.2-.1-.4-.1s-.3 0-.5.1l-11.8 6.2L36 37.2c.1-.3-.1-.7-.3-.9L26.2 27l13.2-1.9zM5.8 21.7l-.7 4.1c-.1.4.1.8.4 1 .3.2.7.2 1 0l3.7-1.9 3.7 1.9c.1.1.3.1.5.1s.4-.1.6-.2c.3-.2.5-.6.4-1l-.7-4.1 3-2.9c.3-.3.4-.7.3-1-.1-.4-.4-.6-.8-.7l-4.2-.5-1.8-3.7c-.3-.7-1.5-.7-1.8 0l-1.8 3.7-4.1.6c-.4.1-.7.3-.8.7s0 .8.3 1l2.8 2.9zm2.5-3.3c.3 0 .6-.3.8-.5l1.2-2.4 1.2 2.4c.1.3.4.5.8.5l2.6.4-1.9 1.9c-.2.2-.3.6-.3.9l.5 2.6-2.4-1.2c-.3-.2-.6-.2-.9 0l-2.4 1.2.5-2.6c.1-.3-.1-.7-.3-.9l-1.9-1.9 2.5-.4zM25.8 9.5l-.7 4.1c-.1.4.1.8.4 1 .3.2.7.3 1.1.1l3.7-1.9 3.7 1.9c.1.1.3.1.5.1s.4-.1.6-.2c.3-.2.5-.6.4-1l-.7-4.1 3-2.9c.3-.3.4-.7.3-1-.1-.4-.4-.6-.8-.7L33 4.3 31.2.6c-.3-.7-1.5-.7-1.8 0l-1.8 3.7-4.1.6c-.4.1-.7.3-.8.7-.1.4 0 .8.3 1l2.8 2.9zm2.5-3.3c.3 0 .6-.3.8-.5l1.2-2.4 1.2 2.4c.1.3.4.5.8.5l2.6.4L33 8.5c-.2.2-.3.6-.3.9l.5 2.6-2.4-1.2c-.3-.2-.6-.2-.9 0L27.5 12l.5-2.6c.1-.3-.1-.7-.3-.9l-1.9-1.9 2.5-.4zM63.6 64.6l-4.1-.6-1.8-3.7c-.3-.7-1.5-.7-1.8 0L54 64l-4.1.6c-.4.1-.7.3-.8.7-.1.4 0 .8.3 1l3 2.9-.7 4.1c-.1.4.1.8.4 1 .2.1.4.2.6.2.2 0 .3 0 .5-.1l3.7-1.9 3.7 1.9c.3.2.7.1 1.1-.1.3-.2.5-.6.4-1l-.7-4.1 3-2.9c.3-.3.4-.7.3-1s-.7-.7-1.1-.7zm-4.2 3.5c-.2.2-.3.6-.3.9l.5 2.6-2.4-1.2c-.1-.1-.3-.1-.5-.1s-.3 0-.5.1l-2.4 1.2.5-2.6c.1-.3-.1-.7-.3-.9l-1.9-1.9 2.6-.4c.3 0 .6-.3.8-.5l1.2-2.4 1.2 2.4c.1.3.4.5.8.5l2.6.4-1.9 1.9z"/><path d="M76.1 39.6L72 39l-1.8-3.7c-.3-.7-1.5-.7-1.8 0L66.5 39l-4.1.6c-.4.1-.7.3-.8.7-.1.4 0 .8.3 1l3 2.9-.7 4.1c-.1.4.1.8.4 1 .2.1.4.2.6.2.2 0 .3 0 .5-.1l3.7-1.9 3.7 1.9c.3.2.7.1 1.1-.1.3-.2.5-.6.4-1l-.7-4.1 3-2.9c.3-.3.4-.7.3-1s-.7-.7-1.1-.7zm-4.2 3.5c-.2.2-.3.6-.3.9l.5 2.6-2.4-1.2c-.1-.1-.3-.1-.5-.1s-.3 0-.5.1l-2.4 1.2.5-2.6c.1-.3-.1-.7-.3-.9l-1.9-1.9 2.6-.4c.3 0 .6-.3.8-.5l1.2-2.4 1.2 2.4c.1.3.4.5.8.5l2.6.4-1.9 1.9zM58.3 14.2l-.7 4.1c-.1.4.1.8.4 1 .3.2.7.3 1.1.1l3.7-1.9 3.7 1.9c.1.1.3.1.5.1s.4-.1.6-.2c.3-.2.5-.6.4-1l-.7-4.1 3-2.9c.3-.3.4-.7.3-1-.1-.4-.4-.6-.8-.7L65.5 9l-1.8-3.7c-.3-.7-1.5-.7-1.8 0L60 9l-4.1.6c-.4.1-.7.3-.8.7s0 .8.3 1l2.9 2.9zm2.5-3.3c.3 0 .6-.3.8-.5L62.8 8l1.2 2.4c.1.3.4.5.8.5l2.6.4-1.9 1.9c-.2.2-.3.6-.3.9l.5 2.6-2.4-1.2c-.3-.2-.6-.2-.9 0L60 16.7l.5-2.6c.1-.3-.1-.7-.3-.9l-1.9-1.9 2.5-.4zM34.5 58.2c-.2-.5-.7-.8-1.2-.7-2.7.8-21.7 6.8-29.7 13.3C9.1 60.3 28.7 49.5 29 49.3c.5-.3.7-.9.4-1.4-.3-.5-.9-.7-1.4-.4-.9.6-18.4 10.2-25.3 20.7 4-20.7 23.4-28.7 23.6-28.8.5-.2.8-.8.6-1.3-.2-.5-.8-.8-1.3-.6C25.4 37.6 0 48.1 0 76c0 .6.4 1 1 1s1-.4 1-1c0-5 19.5-12.8 31.8-16.6.5-.2.8-.7.7-1.2z"/></svg>