<svg xmlns="http://www.w3.org/2000/svg" viewBox="0 0 72 83.4"><path d="M23.7 59.6l5.5 2c8.8-6 17-16.3 19.6-24.3C55.4 17.2 38.6-.4 38.9 0c6.7 10.5 7.4 20.2 7.5 23.3.3 10.6-5.7 17.9-9.2 21-2.2 1.9-4.4 3.6-6.7 5.3-2.1 1.6-5.6 4.3-7.7 5.6l.9 4.4z"/><path d="M19.8 41.6c6.3 1 15.9-3.5 18.4-9.2s-.6 1.7-8.8 5c-3.2 1.2-6.4 1.7-9.6 2.7-.8.3-.7 1.4 0 1.5zM55.6 29.5c-1.6-.1 4 2.2 5.7 8.2.7 2.4.8 4.9 2 7 .3.5 1.1.5 1.4 0 1.3-2.4.5-5.8-.7-8.2-1.5-3.1-6.7-6.9-8.4-7zM45.2 66.3c1.8 1.3 3.7-2 4.9-3.8 1.6-2.3 3.4-6.4 4.4-9 3.3-8.5-1.9-16.1-1.7-15.3 1.3 4.2.4 10-1.7 14.8-.9 2.1-2.2 4-3.5 5.9-1 1.6-4.2 6-2.4 7.4zM2.3 79.2l4.2-10.9L0 58.7l11.7.7 7.2-9.2 2.9 11.3 11 3.9-9.9 6.3-.4 11.7-9-7.4zM37.8 80.3l.2-5.1-4.1-3.1 4.9-1.4 1.7-4.8 2.8 4.2 5.1.1-3.1 4 1.5 4.9-4.8-1.8zM67.6 61.5l-2.2-2.9-3.7.3 2.1-3.1-1.3-3.4 3.5 1.1 2.8-2.4.1 3.7 3.1 2-3.4 1.2zM17.9 44.2l-3.7-.2-2.2 2.9-1-3.5-3.4-1.3 3.1-1.9.1-3.7 2.8 2.3 3.5-1-1.3 3.4z"/></svg>