<svg xmlns="http://www.w3.org/2000/svg" viewBox="0 0 76.7 75.8"><path d="M17.8 20.7L4.1 34.4C-1.4 40-1.4 49 4.1 54.5l2.3 2.3-2.8 2.8C0 63.3-.1 69.3 3.6 73c3.7 3.7 9.6 3.7 13.4.1l.1-.1 2.8-2.8 3.9 3.9c1 .9 2.3 1.4 3.7 1.4 1.9 0 3.7-.7 5-2 .9-.9 1.6-2.1 1.8-3.4.4.1.8.1 1.2.1 1.9 0 3.7-.7 5-2 1-1 1.6-2.2 1.8-3.5 2.2.5 4.5-.2 6.1-1.8 1-1 1.6-2.2 1.8-3.5 3.5.8 7.1-1.4 7.9-4.9.5-2.2-.1-4.6-1.8-6.2L49 41l2.9-2.9c1.7.5 3.5.8 5.3.8 10.7-.1 19.3-8.7 19.5-19.4 0-2.7-.6-5.3-1.7-7.8l-1.1-2.5c-.4-1-1.6-1.5-2.6-1.1-.2.1-.4.2-.6.4L59.9 19.3c-.6.7-1.7.8-2.4.2-.1 0-.1-.1-.2-.2-.7-.6-.8-1.7-.2-2.4l.2-.2L68.1 6c.8-.8.8-2 0-2.8-.2-.2-.4-.3-.6-.4L65 1.7C62.5.6 59.9 0 57.2 0 46.5.1 37.9 8.8 37.8 19.4v1.2c-5.6-5.4-14.5-5.4-20 .1zm-3.6 49.5c-2 2.1-5.3 2.2-7.4.3l-.3-.3c-2.1-2-2.2-5.3-.2-7.5.1-.1.1-.2.2-.2l2.8-2.8 2.7 2.7 5 5-2.8 2.8zM57.2 4c2 0 4.1.5 5.9 1.3l-8.6 8.6c-2.2 2.3-2.2 6 .1 8.2 2.3 2.2 5.9 2.2 8.1 0l8.6-8.6c.8 1.9 1.3 3.9 1.3 5.9-.1 8.5-6.9 15.3-15.4 15.5-1.8 0-3.5-.4-5.1-1-.7-.3-1.6-.1-2.1.5l-3.8 3.7-7.7-7.7 3.8-3.8c.6-.6.7-1.4.5-2.1-.6-1.6-1-3.4-1-5.1.1-8.4 7-15.3 15.4-15.4zM37.4 25.9l-1.7 1.7-.4-.4c-.8-.8-2-.8-2.8 0s-.8 2 0 2.8l21 21c1 1 1 2.7-.1 3.7-1 1-2.6 1-3.6 0L48 52.9c-1.1-.5-2.3-.1-2.9 1-.4.8-.2 1.8.4 2.4 1 1 1.1 2.6.1 3.7-1 1-2.6 1.1-3.7.1l-.1-.1-1.8-1.8c-1.1-.5-2.3-.1-2.9 1-.3.8-.1 1.8.5 2.5 1 1 1 2.7 0 3.7-.8.8-2 1.1-3 .7l-2.5-2.5c-1.1-.5-2.3-.1-2.9 1-.4.8-.2 1.8.4 2.4 1 1 1 2.7 0 3.7-.8.8-2 1.1-3 .7L18.2 63 7 51.7c-4-4-4-10.4 0-14.4l13.7-13.7c4-4 10.4-4 14.4 0l2.3 2.3z"/></svg>