<?xml version="1.0" encoding="utf-8"?>
<!-- Generator: Adobe Illustrator 24.0.2, SVG Export Plug-In . SVG Version: 6.00 Build 0)  -->
<svg version="1.1" id="Layer_1" xmlns="http://www.w3.org/2000/svg" xmlns:xlink="http://www.w3.org/1999/xlink" x="0px" y="0px"
	 viewBox="0 0 77 77" style="enable-background:new 0 0 77 77;" xml:space="preserve">
<path d="M23.1,26c-0.1,0.4,0,0.8,0.3,1L34,37.4l-2.5,14.6c-0.1,0.4,0.1,0.8,0.4,1c0.3,0.2,0.7,0.3,1.1,0.1L46,46.1L59.1,53
	c0.1,0.1,0.3,0.1,0.5,0.1c0.2,0,0.4-0.1,0.6-0.2c0.3-0.2,0.5-0.6,0.4-1L58,37.4L68.6,27c0.3-0.3,0.4-0.7,0.3-1
	c-0.1-0.4-0.4-0.6-0.8-0.7l-14.6-2.1L46.9,10c-0.3-0.7-1.5-0.7-1.8,0l-6.5,13.3l-14.6,2.1C23.6,25.4,23.2,25.7,23.1,26z M39.4,25.1
	c0.3,0,0.6-0.3,0.8-0.5L46,12.7l5.9,11.9c0.1,0.3,0.4,0.5,0.8,0.5L65.8,27l-9.5,9.3c-0.2,0.2-0.3,0.6-0.3,0.9l2.2,13.1l-11.8-6.2
	C46.3,44,46.2,44,46,44s-0.3,0-0.5,0.1l-11.8,6.2L36,37.2c0.1-0.3-0.1-0.7-0.3-0.9L26.2,27L39.4,25.1z"/>
<path d="M5.8,21.7l-0.7,4.1c-0.1,0.4,0.1,0.8,0.4,1C5.8,27,6.2,27,6.5,26.8l3.7-1.9l3.7,1.9c0.1,0.1,0.3,0.1,0.5,0.1
	c0.2,0,0.4-0.1,0.6-0.2c0.3-0.2,0.5-0.6,0.4-1l-0.7-4.1l3-2.9c0.3-0.3,0.4-0.7,0.3-1c-0.1-0.4-0.4-0.6-0.8-0.7L13,16.5l-1.8-3.7
	c-0.3-0.7-1.5-0.7-1.8,0l-1.8,3.7l-4.1,0.6c-0.4,0.1-0.7,0.3-0.8,0.7s0,0.8,0.3,1L5.8,21.7z M8.3,18.4c0.3,0,0.6-0.3,0.8-0.5
	l1.2-2.4l1.2,2.4c0.1,0.3,0.4,0.5,0.8,0.5l2.6,0.4l-1.9,1.9c-0.2,0.2-0.3,0.6-0.3,0.9l0.5,2.6l-2.4-1.2c-0.3-0.2-0.6-0.2-0.9,0
	l-2.4,1.2l0.5-2.6c0.1-0.3-0.1-0.7-0.3-0.9l-1.9-1.9L8.3,18.4z"/>
<path d="M25.8,9.5l-0.7,4.1c-0.1,0.4,0.1,0.8,0.4,1c0.3,0.2,0.7,0.3,1.1,0.1l3.7-1.9l3.7,1.9c0.1,0.1,0.3,0.1,0.5,0.1
	c0.2,0,0.4-0.1,0.6-0.2c0.3-0.2,0.5-0.6,0.4-1l-0.7-4.1l3-2.9c0.3-0.3,0.4-0.7,0.3-1c-0.1-0.4-0.4-0.6-0.8-0.7L33,4.3l-1.8-3.7
	c-0.3-0.7-1.5-0.7-1.8,0l-1.8,3.7l-4.1,0.6c-0.4,0.1-0.7,0.3-0.8,0.7c-0.1,0.4,0,0.8,0.3,1L25.8,9.5z M28.3,6.2
	c0.3,0,0.6-0.3,0.8-0.5l1.2-2.4l1.2,2.4c0.1,0.3,0.4,0.5,0.8,0.5l2.6,0.4l-1.9,1.9c-0.2,0.2-0.3,0.6-0.3,0.9l0.5,2.6l-2.4-1.2
	c-0.3-0.2-0.6-0.2-0.9,0l-2.4,1.2l0.5-2.6c0.1-0.3-0.1-0.7-0.3-0.9l-1.9-1.9L28.3,6.2z"/>
<path d="M63.6,64.6L59.5,64l-1.8-3.7c-0.3-0.7-1.5-0.7-1.8,0L54,64l-4.1,0.6c-0.4,0.1-0.7,0.3-0.8,0.7c-0.1,0.4,0,0.8,0.3,1l3,2.9
	l-0.7,4.1c-0.1,0.4,0.1,0.8,0.4,1c0.2,0.1,0.4,0.2,0.6,0.2c0.2,0,0.3,0,0.5-0.1l3.7-1.9l3.7,1.9c0.3,0.2,0.7,0.1,1.1-0.1
	c0.3-0.2,0.5-0.6,0.4-1l-0.7-4.1l3-2.9c0.3-0.3,0.4-0.7,0.3-1S64,64.6,63.6,64.6z M59.4,68.1c-0.2,0.2-0.3,0.6-0.3,0.9l0.5,2.6
	l-2.4-1.2c-0.1-0.1-0.3-0.1-0.5-0.1s-0.3,0-0.5,0.1l-2.4,1.2l0.5-2.6c0.1-0.3-0.1-0.7-0.3-0.9l-1.9-1.9l2.6-0.4
	c0.3,0,0.6-0.3,0.8-0.5l1.2-2.4l1.2,2.4c0.1,0.3,0.4,0.5,0.8,0.5l2.6,0.4L59.4,68.1z"/>
<path d="M76.1,39.6L72,39l-1.8-3.7c-0.3-0.7-1.5-0.7-1.8,0L66.5,39l-4.1,0.6c-0.4,0.1-0.7,0.3-0.8,0.7c-0.1,0.4,0,0.8,0.3,1l3,2.9
	l-0.7,4.1c-0.1,0.4,0.1,0.8,0.4,1c0.2,0.1,0.4,0.2,0.6,0.2c0.2,0,0.3,0,0.5-0.1l3.7-1.9l3.7,1.9c0.3,0.2,0.7,0.1,1.1-0.1
	c0.3-0.2,0.5-0.6,0.4-1l-0.7-4.1l3-2.9c0.3-0.3,0.4-0.7,0.3-1S76.5,39.6,76.1,39.6z M71.9,43.1c-0.2,0.2-0.3,0.6-0.3,0.9l0.5,2.6
	l-2.4-1.2c-0.1-0.1-0.3-0.1-0.5-0.1s-0.3,0-0.5,0.1l-2.4,1.2l0.5-2.6c0.1-0.3-0.1-0.7-0.3-0.9l-1.9-1.9l2.6-0.4
	c0.3,0,0.6-0.3,0.8-0.5l1.2-2.4l1.2,2.4c0.1,0.3,0.4,0.5,0.8,0.5l2.6,0.4L71.9,43.1z"/>
<path d="M58.3,14.2l-0.7,4.1c-0.1,0.4,0.1,0.8,0.4,1c0.3,0.2,0.7,0.3,1.1,0.1l3.7-1.9l3.7,1.9c0.1,0.1,0.3,0.1,0.5,0.1
	c0.2,0,0.4-0.1,0.6-0.2c0.3-0.2,0.5-0.6,0.4-1l-0.7-4.1l3-2.9c0.3-0.3,0.4-0.7,0.3-1c-0.1-0.4-0.4-0.6-0.8-0.7L65.5,9l-1.8-3.7
	c-0.3-0.7-1.5-0.7-1.8,0L60,9l-4.1,0.6c-0.4,0.1-0.7,0.3-0.8,0.7s0,0.8,0.3,1L58.3,14.2z M60.8,10.9c0.3,0,0.6-0.3,0.8-0.5l1.2-2.4
	l1.2,2.4c0.1,0.3,0.4,0.5,0.8,0.5l2.6,0.4l-1.9,1.9c-0.2,0.2-0.3,0.6-0.3,0.9l0.5,2.6l-2.4-1.2c-0.3-0.2-0.6-0.2-0.9,0l-2.4,1.2
	l0.5-2.6c0.1-0.3-0.1-0.7-0.3-0.9l-1.9-1.9L60.8,10.9z"/>
<path d="M34.5,58.2c-0.2-0.5-0.7-0.8-1.2-0.7c-2.7,0.8-21.7,6.8-29.7,13.3C9.1,60.3,28.7,49.5,29,49.3c0.5-0.3,0.7-0.9,0.4-1.4
	c-0.3-0.5-0.9-0.7-1.4-0.4C27.1,48.1,9.6,57.7,2.7,68.2c4-20.7,23.4-28.7,23.6-28.8c0.5-0.2,0.8-0.8,0.6-1.3
	c-0.2-0.5-0.8-0.8-1.3-0.6C25.4,37.6,0,48.1,0,76c0,0.6,0.4,1,1,1s1-0.4,1-1C2,71,21.5,63.2,33.8,59.4
	C34.3,59.2,34.6,58.7,34.5,58.2z"/>
</svg>
