<?xml version="1.0" encoding="utf-8"?>
<!-- Generator: Adobe Illustrator 24.0.2, SVG Export Plug-In . SVG Version: 6.00 Build 0)  -->
<svg version="1.1" id="Layer_1" xmlns="http://www.w3.org/2000/svg" xmlns:xlink="http://www.w3.org/1999/xlink" x="0px" y="0px"
	 viewBox="0 0 91.1 94.9" style="enable-background:new 0 0 91.1 94.9;" xml:space="preserve">
<title>107all</title>
<path d="M6.8,94.9h76.4l-6.6-10.7h14.5L65.8,42.1l-7.6,12.6L47,36.6V24.2h26.4L62.7,12.1L73.4,0H43v36.6L32.3,53.8l-7-11.7L0,84.2
	h13.4L6.8,94.9z M47,4h17.6l-7.2,8.1l7.2,8.1H47V4z M14,90.9l15.6-25.1l8.1,12l7.9-9.3l7.9,9.3l7.5-11.1l15,24.2L14,90.9z M31.9,62
	L45,40.9l13.7,22l-5.6,8.3l-7.5-8.9L38,71.2L31.9,62z M65.9,49.9l18.2,30.3h-10L60.6,58.5L65.9,49.9z M7.1,80.2l18.2-30.3l4.6,7.7
	l-14,22.6H7.1z"/>
</svg>
