<?xml version="1.0" encoding="utf-8"?>
<!-- Generator: Adobe Illustrator 24.0.2, SVG Export Plug-In . SVG Version: 6.00 Build 0)  -->
<svg version="1.1" id="Layer_1" xmlns="http://www.w3.org/2000/svg" xmlns:xlink="http://www.w3.org/1999/xlink" x="0px" y="0px"
	 viewBox="0 0 72 83.4" style="enable-background:new 0 0 72 83.4;" xml:space="preserve">
<path d="M23.7,59.6l5.5,2c8.8-6,17-16.3,19.6-24.3C55.4,17.2,38.6-0.4,38.9,0c6.7,10.5,7.4,20.2,7.5,23.3c0.3,10.6-5.7,17.9-9.2,21
	c-2.2,1.9-4.4,3.6-6.7,5.3c-2.1,1.6-5.6,4.3-7.7,5.6L23.7,59.6z"/>
<path d="M19.8,41.6c6.3,1,15.9-3.5,18.4-9.2s-0.6,1.7-8.8,5c-3.2,1.2-6.4,1.7-9.6,2.7C19,40.4,19.1,41.5,19.8,41.6z"/>
<path d="M55.6,29.5c-1.6-0.1,4,2.2,5.7,8.2c0.7,2.4,0.8,4.9,2,7c0.3,0.5,1.1,0.5,1.4,0c1.3-2.4,0.5-5.8-0.7-8.2
	C62.5,33.4,57.3,29.6,55.6,29.5z"/>
<path d="M45.2,66.3c1.8,1.3,3.7-2,4.9-3.8c1.6-2.3,3.4-6.4,4.4-9c3.3-8.5-1.9-16.1-1.7-15.3c1.3,4.2,0.4,10-1.7,14.8
	c-0.9,2.1-2.2,4-3.5,5.9C46.6,60.5,43.4,64.9,45.2,66.3z"/>
<polygon points="2.3,79.2 6.5,68.3 0,58.7 11.7,59.4 18.9,50.2 21.8,61.5 32.8,65.4 22.9,71.7 22.5,83.4 13.5,76 "/>
<polygon points="37.8,80.3 38,75.2 33.9,72.1 38.8,70.7 40.5,65.9 43.3,70.1 48.4,70.2 45.3,74.2 46.8,79.1 42,77.3 "/>
<polygon points="67.6,61.5 65.4,58.6 61.7,58.9 63.8,55.8 62.5,52.4 66,53.5 68.8,51.1 68.9,54.8 72,56.8 68.6,58 "/>
<polygon points="17.9,44.2 14.2,44 12,46.9 11,43.4 7.6,42.1 10.7,40.2 10.8,36.5 13.6,38.8 17.1,37.8 15.8,41.2 "/>
</svg>
