<?xml version="1.0" encoding="utf-8"?>
<!-- Generator: Adobe Illustrator 24.0.2, SVG Export Plug-In . SVG Version: 6.00 Build 0)  -->
<svg version="1.1" id="Layer_1" xmlns="http://www.w3.org/2000/svg" xmlns:xlink="http://www.w3.org/1999/xlink" x="0px" y="0px"
	 viewBox="0 0 77.2 67.1" style="enable-background:new 0 0 77.2 67.1;" xml:space="preserve">
<g>
	<path d="M33.8,48.2c1.9,0,3.4-1.5,3.4-3.4s-1.5-3.4-3.4-3.4s-3.4,1.5-3.4,3.4S31.9,48.2,33.8,48.2z M33.8,43.4
		c0.8,0,1.4,0.6,1.4,1.4s-0.6,1.4-1.4,1.4s-1.4-0.6-1.4-1.4S33,43.4,33.8,43.4z"/>
	<path d="M72.9,15.6h-5.3V4.8c0-2.6-2.2-4.8-4.8-4.8h-58C2.2,0,0,2.2,0,4.8v41.7c0,2.6,2.2,4.8,4.8,4.8h17.7v2.6h-3.9
		c-2.7,0-4.9,2.2-4.9,4.9v0.9c0,0.6,0.4,1,1,1h25.8v2.2c0,2.3,1.9,4.2,4.2,4.2h28.3c2.3,0,4.2-1.9,4.2-4.2V19.8
		C77.2,17.5,75.3,15.6,72.9,15.6z M40.4,58.7H15.6c0.1-1.6,1.4-2.8,2.9-2.8h21.8V58.7z M40.4,53.9H24.5v-2.6h15.9V53.9z M40.4,49.3
		H4.8C3.3,49.3,2,48,2,46.5v-5.8h38.4V49.3z M40.4,19.8v18.8H2V4.8C2,3.3,3.3,2,4.8,2h58c1.5,0,2.8,1.3,2.8,2.8v10.7h-21
		C42.3,15.6,40.4,17.5,40.4,19.8z M75.2,62.9c0,1.2-1,2.2-2.2,2.2H44.6c-1.2,0-2.2-1-2.2-2.2V19.8c0-1.2,1-2.2,2.2-2.2h28.3
		c1.2,0,2.2,1,2.2,2.2V62.9z"/>
	<path d="M72.6,19.8H44.9c-0.6,0-1,0.4-1,1v38.2c0,0.6,0.4,1,1,1h27.7c0.6,0,1-0.4,1-1V20.8C73.6,20.2,73.2,19.8,72.6,19.8z
		 M71.6,57.9H45.9V21.8h25.7V57.9z"/>
</g>
</svg>
