<?xml version="1.0" encoding="utf-8"?>
<!-- Generator: Adobe Illustrator 24.0.2, SVG Export Plug-In . SVG Version: 6.00 Build 0)  -->
<svg version="1.1" id="Layer_1" xmlns="http://www.w3.org/2000/svg" xmlns:xlink="http://www.w3.org/1999/xlink" x="0px" y="0px"
	 viewBox="0 0 36.4 64" style="enable-background:new 0 0 36.4 64;" xml:space="preserve">
<style type="text/css">
	.st0{fill:#1A1A1A;}
</style>
<title>Digital_Revisi</title>
<path class="st0" d="M26.5,17.1c0.7,0,1.3-0.2,1.8-0.7c0.1-0.1,0.2-0.3,0.3-0.4c1.6-0.2,2.7-1.6,2.6-3.2C31,11.2,29.6,10,28,10.2
	c-0.6,0.1-1.2,0.3-1.7,0.8l0,0c-0.3,0.3-0.5,0.6-0.7,1c-0.3,0.1-0.7,0.3-0.9,0.6c-1.1,1-1.1,2.7-0.1,3.7
	C25,16.8,25.7,17.1,26.5,17.1z M25.5,13.5c0.2-0.2,0.4-0.3,0.7-0.3c0.2,0,0.4-0.2,0.5-0.5c0.2-0.9,1.1-1.4,2-1.1s1.4,1.1,1.1,2
	c-0.1,0.3-0.2,0.6-0.5,0.8c-0.3,0.3-0.7,0.4-1.1,0.4c-0.2,0-0.5,0.1-0.6,0.4c-0.3,0.7-1.1,0.9-1.8,0.6s-0.9-1.1-0.6-1.8
	C25.3,13.7,25.4,13.6,25.5,13.5z"/>
<path class="st0" d="M7.4,12.2c1.5,0,2.8-1.2,2.8-2.8S8.9,6.7,7.4,6.7S4.6,7.9,4.6,9.4S5.9,12.2,7.4,12.2z M7.4,8
	c0.8,0,1.4,0.6,1.4,1.5s-0.6,1.4-1.5,1.4c-0.8,0-1.4-0.6-1.4-1.5C5.9,8.6,6.6,8,7.4,8L7.4,8z"/>
<path class="st0" d="M16.6,4.6c1.3,0,2.3-1,2.3-2.3S17.8,0,16.5,0c-1.3,0-2.3,1-2.3,2.3S15.3,4.6,16.6,4.6L16.6,4.6z M16.6,1.3
	c0.6,0,1,0.4,1,1s-0.4,1-1,1s-1-0.4-1-1C15.6,1.7,16,1.3,16.6,1.3L16.6,1.3z"/>
<path class="st0" d="M36.4,30.4c0-1.6-1.2-2.9-2.7-3.1c-0.2-1.7-1.7-2.9-3.4-2.7c-0.1,0-0.2,0-0.2,0c-0.6-2.3-3.3-3.8-4.7-3.9
	c-0.4-1.7-1.8-3-3.6-3.1c-0.3-2-2.2-3.3-4.2-2.9c-1.5,0.3-2.7,1.4-2.9,2.9c-1.8,0.1-3.2,1.4-3.6,3.1c-1.4,0.1-4.1,1.6-4.7,3.9
	c-1.7-0.3-3.3,0.8-3.6,2.5c0,0.1,0,0.2,0,0.2C1.2,27.5,0,28.8,0,30.4C0,31,0.2,31.6,0.5,32c0,0.1,0,0.2,0,0.3l5.9,28.5
	c0.1,0.2,0.2,0.4,0.5,0.5L18,64h0.1h0.2l11.2-2.7c0.2-0.1,0.4-0.3,0.5-0.5l5.9-28.5c0-0.1,0-0.2,0-0.3C36.2,31.6,36.4,31,36.4,30.4z
	 M3.3,28.6c0.4,0,0.7-0.2,0.7-0.6C4,28,4,28,4,27.9c0-0.1,0-0.2,0-0.2c0-1,0.8-1.8,1.8-1.8h0c0.1,0,0.2,0,0.3,0
	c0.2,0.1,1.3,0.5,1.4,1.3c0.1,0.3,0.3,0.5,0.6,0.5l0,0c0.3,0,0.5-0.2,0.6-0.5c0.3-1,1.4-1.6,2.4-1.4c0.4,0,0.7-0.2,0.7-0.6
	c0-0.3-0.2-0.6-0.5-0.7c-1.2-0.2-2.4,0.2-3.2,1.1c-0.2-0.2-0.4-0.4-0.6-0.5c0.2-1.9,2.8-3.2,3.6-3.2h0.2c0.3,0,0.7-0.2,0.7-0.5
	c0.1-1.5,1.4-2.6,2.8-2.6h0.2c0.2,0,0.4-0.1,0.5-0.2c0.1-0.1,0.2-0.3,0.2-0.5c0-1.3,1-2.3,2.3-2.3s2.3,1,2.3,2.3
	c0,0.4,0.3,0.7,0.6,0.7c0,0,0,0,0.1,0h0.2c1.2,0,2.3,0.8,2.7,2c-0.6,0.2-1.1,0.5-1.6,1c-0.5-0.5-1.1-0.9-1.8-1.1
	c-0.4-0.1-0.7,0.1-0.8,0.5c-0.1,0.3,0.1,0.6,0.4,0.8c0,0,1.3,0.4,1.5,1.4c0.1,0.3,0.3,0.5,0.6,0.5l0,0c0.3,0,0.6-0.2,0.6-0.5
	c0.3-1.1,1.4-1.7,2.5-1.4h0c1,0.3,3,1.5,3.2,3.1c-0.7,0.4-1.1,1.1-1.3,1.9c-0.1,0.4,0.2,0.7,0.5,0.8h0.2c0.3,0,0.6-0.2,0.6-0.5
	c0.1-0.8,1-1.2,1.3-1.3c0.1,0,0.3-0.1,0.5-0.1c1,0,1.8,0.8,1.8,1.8c0,0.1,0,0.2,0,0.2c0,0.4,0.2,0.7,0.6,0.7c0.1,0,0.1,0,0.2,0
	c1-0.1,1.9,0.6,2,1.6c0,0.1,0,0.1,0,0.2c0,1-0.8,1.8-1.8,1.8c-0.2,0-0.3,0-0.5-0.1c-0.3-0.1-0.6,0.1-0.8,0.4
	c-0.2,0.5-0.7,0.9-1.3,1.1l0,0c-0.1,0-0.3,0-0.4,0.1h-0.1c-0.4,0.1-0.8,0-1.2-0.2c-0.3-0.2-0.6-0.1-0.8,0.1
	c-0.6,0.6-1.5,0.7-2.2,0.3c-0.3-0.2-0.7,0-0.9,0.3c0,0.1,0,0.1-0.1,0.2c-0.1,0.5-0.4,0.9-0.8,1.2l0,0c-0.6,0.3-1.3,0.3-1.9,0
	c-0.2-0.1-0.5-0.1-0.7,0c-1,0.9-2.3,1.4-3.6,1.3c-1,0-2-0.3-2.8-0.8c0.4-0.5,0.7-1.1,0.8-1.7c1.3,0.4,2.8,0.1,3.8-0.9
	c0.3-0.3,0.3-0.7,0-0.9s-0.7-0.3-0.9,0c-0.9,0.8-2.1,0.9-3.1,0.3c-0.3-0.2-0.7-0.1-0.9,0.2C15,32.9,15,33.1,15,33.2
	c0,0.9-0.4,1.7-1.1,2.2c-0.6,0.3-1.3,0.3-1.8-0.1l0,0c-0.4-0.3-0.7-0.7-0.8-1.2c-0.1-0.4-0.4-0.6-0.8-0.5c-0.1,0-0.2,0-0.2,0.1
	c-0.7,0.4-1.6,0.3-2.2-0.3c-0.2-0.2-0.5-0.2-0.8-0.1c-0.3,0.2-0.7,0.3-1.1,0.3H6c-0.1-0.1-0.3-0.1-0.4-0.1l0,0
	c-0.6-0.1-1.1-0.5-1.3-1.1c-0.1-0.3-0.5-0.4-0.8-0.4c-0.9,0.3-1.9-0.3-2.2-1.2c0-0.2-0.1-0.3-0.1-0.5c0-1,0.8-1.8,1.8-1.8
	C3.2,28.6,3.2,28.6,3.3,28.6z M11,36.2l2.6,25.4L11.2,61L6.5,34.9c0.3,0,0.6-0.1,0.9-0.3c0.8,0.5,1.8,0.7,2.7,0.5
	C10.3,35.5,10.6,35.9,11,36.2z M12.4,36.9c0.2,0,0.4,0.1,0.6,0.1c0.3,0,0.5,0,0.8-0.1l0,0c0.1,0,0.1,0,0.2,0l0.2-0.1
	c0.9,0.7,2.1,1.2,3.3,1.3v24.5L15,61.9L12.4,36.9z M18.8,38c1.2-0.1,2.3-0.5,3.3-1.3c0.6,0.3,1.2,0.3,1.9,0.2l-2.6,25.1l-2.5,0.6V38
	z M25.3,36.2c0.4-0.3,0.7-0.7,0.8-1.1c0.9,0.2,1.9,0.1,2.7-0.5c0.3,0.1,0.6,0.2,0.9,0.3L25.2,61l-2.5,0.6L25.3,36.2z M2,33.3
	c0.4,0.2,0.9,0.2,1.4,0.2c0.4,0.6,1.1,1.1,1.8,1.3l4.6,25.9l-2.3-0.5L2,33.3z M28.8,60.2l-2.3,0.5l4.6-25.9c0.7-0.2,1.4-0.7,1.8-1.3
	c0.5,0,0.9,0,1.4-0.2L28.8,60.2z"/>
</svg>
