<svg version="1" xmlns="http://www.w3.org/2000/svg" width="1701.333" height="1701.333" viewBox="0 0 1276.000000 1276.000000"><path d="M1 638v637h1274V1H1v637zM680.1 83c131.7 10.1 251.6 63.9 346.7 155.5 88.4 85.2 146.7 199.3 164.1 321 4 28.5 4.6 38.1 4.6 79.5s-.6 50.9-4.6 79.5c-14.8 103.9-58.5 200.5-127.7 282.5-13.6 16.1-46.1 48.6-62.2 62.2-55.9 47.1-117.4 82-184.5 104.4-41.1 13.7-79.1 21.8-124.5 26.6-17 1.8-89 1.8-106 0-74.1-7.8-140.6-27.4-203.5-60.1-102.3-53.2-185.3-136.2-238.6-238.6-34.8-66.9-55.3-140-61-217.2-1.5-21.5-.7-77.7 1.5-97.3 4.9-43.1 12.7-79 25.6-118 55.1-166.2 186.7-297.7 353-353 40.4-13.4 84.3-22.6 124-26 6.9-.5 14.1-1.2 16-1.4 8.7-.8 65-.5 77.1.4z"/><path d="M614 111.6c-2.5.2-10.8.8-18.5 1.4-7.7.6-21.8 2.2-31.4 3.6-113.3 16.2-217 68.1-298.1 149.3-89.1 89.2-141.3 201.7-153.2 329.6-1.7 17.9-1.6 70.9.1 88 11.2 114.6 53 214.3 125.7 299.5 12.6 14.8 41.6 43.8 56.4 56.4 70.1 59.8 152.7 100 241.5 117.5 36.1 7.1 62 9.6 102.5 9.6 32.9 0 45.1-.8 73-4.6 87.5-12.1 172.5-47.1 243.5-100.4 38.8-29.2 76.8-67.2 106-106 53.3-71 88.3-156 100.4-243.5 3.8-27.9 4.6-40.1 4.6-73 0-40.5-2.5-66.4-9.6-102.5-17.5-88.8-57.7-171.4-117.5-241.5-12.6-14.8-41.6-43.8-56.4-56.4-83.9-71.5-183.1-113.7-294-125.1-14.4-1.5-64.8-2.8-75-1.9zM906 371v107l-51.2-.2-51.3-.3-.3-63.8-.2-63.7H535v241h226v86H535v255h268V805h103v213H365v-86h72V350h-72v-86h541v107z"/></svg>